<svg width="16" height="16" viewBox="0 0 16 16" fill="none" xmlns="http://www.w3.org/2000/svg">
<path fill-rule="evenodd" clip-rule="evenodd" d="M8 14C11.3137 14 14 11.3137 14 8C14 4.68629 11.3137 2 8 2C4.68629 2 2 4.68629 2 8C2 11.3137 4.68629 14 8 14ZM7 5C7 4.44772 7.44772 4 8 4C8.55228 4 9 4.44772 9 5V8C9 8.55228 8.55228 9 8 9C7.44772 9 7 8.55228 7 8V5ZM7.98999 10C8.54227 10 8.98999 10.4477 8.98999 11C8.98999 11.5523 8.54227 12 7.98999 12H7.97999C7.4277 12 6.97999 11.5523 6.97999 11C6.97999 10.4477 7.4277 10 7.97999 10H7.98999Z" fill="#747474"/>
</svg>
