<svg width="24" height="24" viewBox="0 0 24 24" fill="none" xmlns="http://www.w3.org/2000/svg">
<path fill-rule="evenodd" clip-rule="evenodd" d="M2 12C2 6.47715 6.47715 2 12 2C17.5228 2 22 6.47715 22 12C22 17.5228 17.5228 22 12 22C6.47715 22 2 17.5228 2 12ZM15.7071 10.7071C16.0976 10.3166 16.0976 9.68342 15.7071 9.29289C15.3166 8.90237 14.6834 8.90237 14.2929 9.29289L10.6364 12.9494L9.70711 12.0202C9.31658 11.6296 8.68342 11.6296 8.29289 12.0202C7.90237 12.4107 7.90237 13.0439 8.29289 13.4344L9.92926 15.0707C10.1168 15.2583 10.3711 15.3636 10.6364 15.3636C10.9016 15.3636 11.1559 15.2583 11.3435 15.0707L15.7071 10.7071Z" fill="white"/>
</svg>
