<svg width="24" height="24" viewBox="0 0 24 24" fill="none" xmlns="http://www.w3.org/2000/svg">
<path fill-rule="evenodd" clip-rule="evenodd" d="M12.124 2.21936C6.60118 2.21936 2.12402 6.69651 2.12402 12.2194C2.12402 17.7422 6.60118 22.2194 12.124 22.2194C17.6469 22.2194 22.124 17.7422 22.124 12.2194C22.124 6.69651 17.6469 2.21936 12.124 2.21936ZM12.9999 12C12.9999 11.4477 12.5522 11 11.9999 11C11.4476 11 10.9999 11.4477 10.9999 12V16C10.9999 16.5523 11.4476 17 11.9999 17C12.5522 17 12.9999 16.5523 12.9999 16V12ZM10.9999 7.99997C10.9999 7.44768 11.4476 6.99997 11.9999 6.99997H12.0099C12.5622 6.99997 13.0099 7.44768 13.0099 7.99997C13.0099 8.55225 12.5622 8.99997 12.0099 8.99997H11.9999C11.4476 8.99997 10.9999 8.55225 10.9999 7.99997Z" fill="white"/>
</svg>
