<svg width="24" height="24" viewBox="0 0 24 24" fill="none" xmlns="http://www.w3.org/2000/svg">
<path fill-rule="evenodd" clip-rule="evenodd" d="M12.1241 2.21948C6.6013 2.21948 2.12415 6.69663 2.12415 12.2195C2.12415 17.7423 6.6013 22.2195 12.1241 22.2195C17.647 22.2195 22.1241 17.7423 22.1241 12.2195C22.1241 6.69663 17.647 2.21948 12.1241 2.21948ZM13 12.0001C13 11.4478 12.5523 11.0001 12 11.0001C11.4477 11.0001 11 11.4478 11 12.0001V16.0001C11 16.5524 11.4477 17.0001 12 17.0001C12.5523 17.0001 13 16.5524 13 16.0001V12.0001ZM11 8.00009C11 7.44781 11.4477 7.00009 12 7.00009H12.01C12.5623 7.00009 13.01 7.44781 13.01 8.00009C13.01 8.55238 12.5623 9.00009 12.01 9.00009H12C11.4477 9.00009 11 8.55238 11 8.00009Z" fill="#111111"/>
</svg>
